<svg width="119" height="24" viewBox="0 0 119 24" fill="none" xmlns="http://www.w3.org/2000/svg">
<path d="M12.465 23.6962C11.6765 21.4221 10.9031 19.2541 10.1449 17.1922C9.41703 15.1001 8.71949 13.1595 8.05227 11.3705C7.41538 9.58158 6.80881 8.02003 6.23258 6.68589H5.95962C5.95962 6.68589 5.92929 6.9891 5.86864 7.59553C5.80798 8.17164 5.74733 8.94483 5.68667 9.91511C5.65634 10.8551 5.59568 11.8708 5.5047 12.9624C5.41372 14.0237 5.3379 15.0546 5.27724 16.0552C5.21658 17.0558 5.15593 17.9048 5.09527 18.6022C5.06494 19.2996 5.04978 19.7089 5.04978 19.8302C5.04978 20.5882 5.44404 22.2483 6.23258 22.2483L6.90748 22.2673L7.04396 22.3848L6.68002 23.2413C6.68002 23.2413 6.29184 23.1504 5.73216 23.1504C5.17249 23.1504 4.80715 23.1352 4.3219 23.1049C3.86698 23.1049 3.47271 23.1049 3.1391 23.1049C2.65385 23.1049 2.12311 23.1201 1.54687 23.1504C1.00097 23.211 0.940173 23.2565 0.545907 23.2868C0.181969 23.3475 0 23.3778 0 23.3778L0.181969 22.4757C0.940173 22.3848 1.08355 22.2423 1.4104 21.8882C1.73725 21.5342 2.0018 19.4815 2.09278 18.6022C2.15344 18.3293 2.21409 17.8138 2.27475 17.0558C2.36574 16.2978 2.47188 15.4033 2.5932 14.3724C2.71451 13.3111 2.83582 12.2347 2.95713 11.1431C3.07845 10.0212 3.1846 8.95999 3.27558 7.95939C3.39689 6.95878 3.48788 6.12495 3.54853 5.45788C3.60919 4.76049 3.63952 4.32083 3.63952 4.1389C3.63952 3.7144 3.5639 2.13769 3.38193 1.89512C3.19996 1.65255 2.54782 1.30674 1.78962 1.27642L1.60765 1.00353L1.93366 0.227447C1.93366 0.227447 2.38848 0.288087 2.90406 0.31841C3.41964 0.348733 3.60919 0.379055 4.09444 0.409376C4.61002 0.409376 5.03461 0.409376 5.36822 0.409376C5.73216 0.409376 6.12643 0.409376 6.55102 0.409376C6.97562 0.379055 7.36988 0.363894 7.73382 0.363894C8.09776 0.333571 8.40104 0.31841 8.64367 0.31841C8.88629 0.288089 9.0076 0.272929 9.0076 0.272929C9.64449 2.39542 10.2662 4.38147 10.8728 6.23107C11.4793 8.05035 12.0253 9.67254 12.5105 11.0976C13.0261 12.4924 13.4204 13.584 13.6933 14.3724C13.9966 15.1304 14.1482 15.5094 14.1482 15.5094H14.4212C14.4212 15.5094 14.5577 15.1152 14.8306 14.3269C15.1339 13.5385 15.5433 12.4621 16.0589 11.0976C16.5745 9.70287 17.1507 8.09583 17.7876 6.27655C18.4245 4.42695 19.0917 2.45607 19.7893 0.363894C20.1835 0.333571 20.7749 0.333571 21.5635 0.363894C22.352 0.394215 23.0799 0.409376 23.7471 0.409376C24.1717 0.379055 25.582 0.25777 26.128 0.227447C26.6739 0.197125 26.8558 0.181966 26.8558 0.181966L26.9923 0.31841L26.7194 1.30385C25.6579 1.42514 25.1803 1.89512 25.1803 1.89512C24.786 2.16801 24.7024 3.57795 24.7024 4.18438C24.7024 4.54824 24.7328 5.24563 24.7934 6.27655C24.8541 7.30748 24.9299 8.50517 25.0209 9.86963C25.1119 11.2341 25.218 12.6137 25.3393 14.0085C25.4606 15.373 25.5668 16.601 25.6578 17.6925C25.7791 18.9964 25.9611 21.3387 26.2037 21.7935C26.4463 22.218 26.8557 22.2483 27.432 22.2483L27.8339 22.2028L27.9249 22.3393L27.6065 23.1959C27.6065 23.1959 26.7799 23.1049 26.2037 23.1049C25.6274 23.1049 25.0815 23.1049 24.566 23.1049C24.2323 23.1049 23.7926 23.1201 23.2467 23.1504C22.7311 23.1807 22.2004 23.211 21.6544 23.2413C21.1085 23.2717 21.0477 23.302 20.6535 23.3323C20.2592 23.3626 20.0318 23.3778 19.9711 23.3778L20.2441 22.4757C21.0023 22.3848 21.3893 22.0247 21.4841 21.9299C21.9058 21.5083 21.9274 20.4336 21.9274 19.4208C21.9274 18.4081 21.7606 16.4948 21.6999 15.5549C21.6393 14.5846 21.5635 13.584 21.4725 12.5531C21.4118 11.5221 21.3512 10.567 21.2905 9.6877C21.2299 8.77806 21.1692 8.05035 21.1085 7.50457C21.0479 6.95878 21.0176 6.68589 21.0176 6.68589H20.7446C20.3503 7.6865 19.9106 8.82355 19.4253 10.097C18.9401 11.3402 18.4245 12.6744 17.8786 14.0995C17.363 15.5246 16.8171 17.0255 16.2409 18.6022C15.695 20.1486 15.1339 21.7404 14.5577 23.3778L12.465 23.6962Z" fill="currentColor"/>
<path d="M38.9985 23.5142C36.8452 23.5142 34.9648 23.0594 33.3574 22.1497C31.7804 21.2401 30.5521 19.9514 29.6726 18.2838C28.793 16.6161 28.3533 14.6604 28.3533 12.4166C28.3533 9.93024 28.8689 7.76226 29.9 5.91266C30.9615 4.06306 32.4173 2.6228 34.2673 1.59187C36.1173 0.530623 38.2403 0 40.6362 0C42.8501 0 44.7608 0.45482 46.3682 1.36446C47.9756 2.24378 49.2191 3.50211 50.0986 5.13947C50.9781 6.77682 51.4179 8.73255 51.4179 11.0066C51.4179 13.4627 50.8871 15.6306 49.8256 17.5106C48.7641 19.3905 47.2932 20.8611 45.4129 21.9223C43.5629 22.9836 41.4247 23.5142 38.9985 23.5142ZM39.9993 20.7853C41.9403 20.7853 43.487 20.0727 44.6395 18.6476C45.792 17.2225 46.3682 15.2668 46.3682 12.7804C46.3682 10.7186 46.0801 8.97512 45.5039 7.55001C44.958 6.09459 44.1694 4.98786 43.1383 4.22983C42.1374 3.47179 40.9395 3.09278 39.5444 3.09278C37.6337 3.09278 36.1173 3.79017 34.9952 5.18495C33.9033 6.57973 33.3574 8.53546 33.3574 11.0521C33.3574 13.114 33.6152 14.8726 34.1308 16.328C34.6767 17.7531 35.4501 18.8599 36.4509 19.6482C37.4517 20.4063 38.6345 20.7853 39.9993 20.7853Z" fill="currentColor"/>
<path d="M63.3029 23.5142C60.5128 23.5142 58.3898 22.8623 56.934 21.5585C55.5086 20.2547 54.7959 18.3444 54.7959 15.8277C54.7959 15.8277 54.7959 5.27924 54.7959 4.41175C54.7959 3.54427 54.8537 2.6134 54.7959 2.52091C54.6443 2.27834 54.2419 1.9069 53.696 1.9069C53.514 1.9069 53.2714 1.86476 52.9681 1.89508C52.6648 1.89508 52.5132 1.89508 52.5132 1.89508L52.4222 1.75864L52.7407 0.318373C52.7407 0.318373 54.5988 0.409338 55.3873 0.409338C56.1758 0.409338 56.8885 0.409338 57.5254 0.409338C57.9197 0.409338 58.3595 0.394178 58.8447 0.363857C59.33 0.333534 59.8 0.303212 60.255 0.272891C60.7099 0.24257 60.6791 0.212249 60.952 0.181928C61.2553 0.151607 61.4069 0.136447 61.4069 0.136447V1.51634C60.5881 1.6073 60.4218 1.78923 60.1185 2.06212C59.8455 2.33501 59.3906 3.27674 59.3906 4.27531L59.1177 14.6452C59.1177 16.5251 59.5574 17.9957 60.4369 19.057C61.3164 20.0879 62.5902 20.6033 64.2583 20.6033C65.9263 20.6033 67.1849 20.194 68.0341 19.3753C68.9137 18.5263 69.3534 17.2832 69.3534 15.6458C69.3534 15.1607 69.3383 14.4784 69.3079 13.5991C69.3079 12.6895 69.2928 11.7192 69.2624 10.6883C69.2624 9.65735 69.2473 8.6719 69.2169 7.73194C69.2169 6.76166 69.2018 5.9733 69.1714 5.36688C69.1714 4.73013 69.1714 4.41175 69.1714 4.41175C69.1714 3.65372 69.2733 2.80192 69.008 2.46361C68.7428 2.1253 68.5342 1.89508 67.5863 1.89508C66.6384 1.89508 67.0404 1.89508 67.0404 1.89508L66.9494 1.75864L67.2679 0.318373C67.2679 0.318373 67.2148 0.333534 67.7304 0.363857C68.2763 0.363857 68.7317 0.379017 69.3989 0.409338C70.0965 0.409338 70.6727 0.409338 71.1276 0.409338C71.7342 0.409338 72.3559 0.394178 72.9928 0.363857C73.6297 0.303213 73.2652 0.348695 73.7202 0.318374C74.1751 0.288053 74.4026 0.272893 74.4026 0.272893L74.2206 1.75864C73.2501 1.94057 73.0779 2.13238 72.9928 2.19859C72.7198 2.41084 72.8108 3.5476 72.8108 4.18434V15.4184C72.8108 18.026 71.992 20.0272 70.3542 21.422C68.7165 22.8168 66.3661 23.5142 63.3029 23.5142Z" fill="currentColor"/>
<path d="M94.5149 15.5094L94.4239 4.0479C94.4239 3.50211 94.3864 2.36338 94.2044 2.15113C94.0224 1.90856 94.01 1.78728 93.5551 1.78728C93.2821 1.78728 93.3272 1.78728 93.0543 1.78728C92.8116 1.78728 92.6448 1.78728 92.5538 1.78728L92.4629 1.55987L92.6823 0.272891C92.6823 0.272891 92.834 0.288052 93.1373 0.318373C93.4709 0.318373 93.5471 0.333534 94.002 0.363857C94.4873 0.363857 94.6665 0.379017 95.1518 0.409338C95.6674 0.409338 96.1071 0.409338 96.471 0.409338C97.0776 0.409338 97.6993 0.394178 98.3362 0.363857C98.9731 0.333536 100.417 0.272891 100.417 0.272891L100.288 1.3493C99.4388 1.47058 99.1024 1.60703 98.7082 1.94057C98.3442 2.2741 98.0936 3.91145 98.0633 4.63916L97.5629 23.6961L94.5149 24C92.9378 21.6956 91.4366 19.6937 90.0111 17.6925C88.5857 15.661 87.3119 13.8872 86.1898 12.3711C85.098 10.855 84.2336 9.67251 83.5967 8.82351C82.9599 7.97451 82.6414 7.55001 82.6414 7.55001H82.323L82.2775 19.4208C82.2775 20.0272 82.4761 21.5942 82.629 21.7935C82.782 21.9927 83.2332 22.2483 83.5768 22.2483C84.1491 22.2483 84.2781 22.2293 84.2781 22.2293L84.4865 22.3847L84.0771 23.2413C84.0771 23.2413 83.569 23.1503 83.0838 23.1503C82.5985 23.1503 82.3381 23.1352 81.8225 23.1049C81.3373 23.1049 80.8824 23.1049 80.4578 23.1049C79.8512 23.1049 79.2143 23.12 78.5471 23.1503C77.9102 23.211 77.7736 23.2565 77.3187 23.2868C76.8638 23.3474 76.6363 23.3777 76.6363 23.3777L76.9092 22.4757C77.6674 22.3847 77.9429 22.2243 78.3262 22.0398C78.838 21.7935 78.8001 20.2915 78.8001 18.966L79.2295 4.59368C79.2295 3.83565 79.2626 2.1983 78.838 1.89508C78.838 1.89508 78.4106 1.51755 77.2154 1.25834L76.9424 0.985444L77.2074 0.22741C77.2074 0.22741 77.7737 0.333536 78.4106 0.363857C79.0475 0.394178 79.6238 0.409338 80.1393 0.409338C80.6549 0.409338 81.1553 0.394178 81.6406 0.363857C82.1561 0.333534 82.5807 0.318373 82.9144 0.318373C83.248 0.288052 83.4148 0.272891 83.4148 0.272891C84.7189 2.24378 86.0078 4.13886 87.2816 5.95814C88.5857 7.77742 89.7534 9.41478 90.7845 10.8702C91.8157 12.2953 92.6345 13.4324 93.2411 14.2814C93.878 15.1 94.1964 15.5094 94.1964 15.5094H94.5149Z" fill="currentColor"/>
<path d="M105.314 23.3323L105.633 22.4302C106.785 22.3392 106.539 22.4003 106.899 22.2521C107.562 21.979 108.006 21.3614 108.158 20.8459C108.309 20.3305 108.317 18.3141 108.317 17.2832V2.81988C107.286 2.85021 106.929 2.91085 106.262 3.00181C105.625 3.09278 105.125 3.28986 104.761 3.59308C104.427 3.86597 104.154 4.13128 103.942 4.73771C103.815 5.10156 103.608 5.54122 103.487 6.63279L101.834 6.76924C101.834 6.76924 101.955 5.82928 102.016 5.10156C102.077 4.37385 102.137 3.75985 102.198 2.91085C102.259 2.06185 102.304 1.21285 102.335 0.363857L102.699 0L105.17 0.363857H115.747L118.181 0L118.591 0.363857C118.621 1.21285 118.651 2.06185 118.682 2.91085C118.742 3.75985 118.788 4.35869 118.818 5.05608C118.848 5.75347 119 6.63279 119 6.63279L117.476 6.76924C117.324 5.64735 117.101 5.24098 116.93 4.78319C116.759 4.3254 116.49 3.86597 116.157 3.59308C115.853 3.28986 115.399 3.09278 114.792 3.00181C114.216 2.91085 114.004 2.85021 113.003 2.81988C112.912 3.57792 112.836 4.57852 112.775 5.8217C112.745 7.03455 112.699 8.36869 112.639 9.82411C112.578 11.2795 112.533 12.7653 112.502 14.2814C112.502 15.7671 112.502 17.177 112.502 18.5112C112.502 19.3905 112.578 21.4295 112.896 21.7935C113.215 22.1574 113.415 22.1573 113.662 22.2028C113.909 22.2483 114.933 22.2028 114.933 22.2028L115.11 22.2938L114.792 23.2413C114.792 23.2413 113.92 23.1503 113.253 23.1503C112.586 23.1503 112.654 23.1352 111.956 23.1049C111.259 23.1049 110.683 23.1049 110.228 23.1049C109.712 23.1049 109.121 23.1049 108.453 23.1049C107.786 23.1352 107.46 23.1655 106.823 23.1958L105.314 23.3323Z" fill="currentColor"/>
</svg>
