<svg width="36" height="36" viewBox="0 0 36 36" fill="none" xmlns="http://www.w3.org/2000/svg">
<path d="M23.2002 0C27.6805 1.82671e-10 29.9206 0.000145495 31.6318 0.87207C33.1371 1.63906 34.3609 2.86287 35.1279 4.36816C35.9999 6.07943 36 8.31953 36 12.7998V23.2002C36 27.6805 35.9999 29.9206 35.1279 31.6318C34.3609 33.1371 33.1371 34.3609 31.6318 35.1279C29.9206 35.9999 27.6805 36 23.2002 36H12.7998C8.31953 36 6.07943 35.9999 4.36816 35.1279C2.86287 34.3609 1.63906 33.1371 0.87207 31.6318C0.000145555 29.9206 1.84691e-10 27.6805 0 23.2002V12.7998C1.82671e-10 8.31953 0.000145495 6.07943 0.87207 4.36816C1.63906 2.86287 2.86287 1.63906 4.36816 0.87207C6.07943 0.000145555 8.31953 1.84691e-10 12.7998 0H23.2002ZM21.9941 15.7051L22.0566 15.7617C22.3194 15.8137 22.4196 15.889 22.4268 15.8945C22.5237 15.9577 22.5166 16.2991 22.5166 16.457L22.4189 19.4512C22.4189 19.7272 22.4273 20.0403 22.3105 20.0918C22.223 20.1302 22.1595 20.1637 21.9863 20.1826L21.9248 20.3701C21.9297 20.3695 21.9815 20.3636 22.0801 20.3516C22.1839 20.3453 22.2153 20.3359 22.3604 20.3232C22.5126 20.3169 22.6584 20.3135 22.7969 20.3135H23.1084C23.2261 20.3198 23.2858 20.3232 23.3965 20.3232C23.5073 20.3232 23.624 20.3418 23.624 20.3418L23.7168 20.1631L23.6699 20.1309C23.6699 20.1309 23.64 20.1348 23.5098 20.1348C23.4313 20.1348 23.3279 20.0815 23.293 20.04C23.2581 19.9981 23.2129 19.6721 23.2129 19.5459L23.2227 17.0732H23.2959C23.3006 17.0789 23.3732 17.1671 23.5137 17.3379C23.6591 17.5148 23.8571 17.7613 24.1064 18.0771C24.3626 18.3929 24.6532 18.7625 24.9785 19.1855C25.304 19.6024 25.6467 20.0199 26.0068 20.5L26.7031 20.4365L26.8174 16.4668C26.8243 16.3152 26.8817 15.9738 26.9648 15.9043C27.0548 15.8349 27.1315 15.8065 27.3252 15.7812L27.3545 15.5566C27.3485 15.5569 27.0241 15.5699 26.8799 15.5762C26.7346 15.5825 26.5925 15.585 26.4541 15.585H26.1523C26.0416 15.5786 26.0004 15.5762 25.8896 15.5762C25.7859 15.5699 25.7685 15.5664 25.6924 15.5664C25.6271 15.5604 25.5926 15.557 25.5889 15.5566L25.5381 15.8252L25.5596 15.8721H25.7881C25.8917 15.8721 25.895 15.8978 25.9365 15.9482C25.9779 15.9932 25.9863 16.2303 25.9863 16.3438L26.0068 18.7314H25.9346C25.9346 18.7314 25.8612 18.6461 25.7158 18.4756C25.5773 18.2987 25.3907 18.0615 25.1553 17.7646C24.9198 17.4614 24.6532 17.1202 24.3555 16.7412C24.0646 16.3622 23.7704 15.9672 23.4727 15.5566C23.4727 15.5566 23.4343 15.5601 23.3584 15.5664C23.2823 15.5664 23.185 15.5699 23.0674 15.5762C22.9567 15.5825 22.8423 15.585 22.7246 15.585C22.607 15.585 22.4753 15.5825 22.3301 15.5762C22.1846 15.5699 22.0547 15.5479 22.0547 15.5479L21.9941 15.7051ZM10.3906 15.5479C10.2658 15.5542 9.94486 15.5786 9.84766 15.585C9.6953 15.585 9.52869 15.5825 9.34863 15.5762C9.16863 15.5699 9.03337 15.5699 8.94336 15.5762C8.78413 16.0119 8.63172 16.4224 8.48633 16.8076C8.34098 17.1864 8.20948 17.5211 8.0918 17.8115C7.97416 18.0956 7.88076 18.3202 7.81152 18.4844C7.7492 18.6486 7.71777 18.7314 7.71777 18.7314H7.65527C7.65527 18.7314 7.62101 18.6521 7.55176 18.4941C7.48943 18.3299 7.39897 18.1021 7.28125 17.8115C7.17049 17.5148 7.04565 17.1766 6.90723 16.7979C6.76876 16.4126 6.62683 15.9987 6.48145 15.5566C6.47894 15.5569 6.4512 15.5604 6.39844 15.5664C6.34305 15.5664 6.27347 15.5699 6.19043 15.5762C6.10749 15.5762 6.01763 15.5787 5.9209 15.585H5.35938C5.24886 15.5787 5.20548 15.5727 5.08789 15.5664C4.97018 15.5601 4.86621 15.5479 4.86621 15.5479L4.79199 15.709L4.83301 15.7656C5.00606 15.7719 5.15564 15.844 5.19727 15.8945C5.23882 15.9451 5.25586 16.2739 5.25586 16.3623C5.25586 16.4002 5.24918 16.4917 5.23535 16.6367C5.2215 16.7757 5.20055 16.9497 5.17285 17.1582C5.15208 17.3666 5.1273 17.5876 5.09961 17.8213C5.07191 18.0487 5.0443 18.2731 5.0166 18.4941C4.9889 18.7089 4.96511 18.8958 4.94434 19.0537C4.93053 19.2111 4.91615 19.3181 4.90234 19.375C4.8816 19.5579 4.82155 19.9848 4.74707 20.0596C4.6725 20.1333 4.63957 20.1637 4.4668 20.1826L4.4248 20.3701C4.4248 20.3701 4.46815 20.364 4.5498 20.3516C4.63954 20.3452 4.65382 20.3359 4.77832 20.3232C4.90979 20.3169 5.03088 20.3135 5.1416 20.3135H5.41211C5.52262 20.3198 5.60594 20.3232 5.7334 20.3232C5.86095 20.3232 5.9502 20.3418 5.9502 20.3418L6.0332 20.1631L6.00195 20.1387L5.84766 20.1348C5.66782 20.1343 5.57812 19.7887 5.57812 19.6309C5.57816 19.6051 5.581 19.5195 5.58789 19.375C5.60173 19.2298 5.61605 19.053 5.62988 18.8447C5.64373 18.6363 5.66087 18.4213 5.68164 18.2002C5.7024 17.9729 5.71671 17.7612 5.72363 17.5654C5.73748 17.3634 5.7508 17.202 5.76465 17.082C5.77847 16.9559 5.78613 16.8926 5.78613 16.8926H5.84766C5.97924 17.1705 6.11824 17.4964 6.26367 17.8691C6.41599 18.2418 6.57505 18.6463 6.74121 19.082C6.91431 19.5115 7.09146 19.9628 7.27148 20.4365L7.74902 20.3701C7.88057 20.0291 8.00916 19.6971 8.13379 19.375C8.26525 19.0468 8.3892 18.7342 8.50684 18.4375C8.63149 18.1406 8.74955 17.8625 8.86035 17.6035C8.97116 17.3382 9.07208 17.101 9.16211 16.8926H9.22363C9.22363 16.8926 9.23127 16.9498 9.24512 17.0635C9.25897 17.1772 9.27228 17.3291 9.28613 17.5186C9.29998 17.7017 9.31428 17.9006 9.32812 18.1152C9.34889 18.3299 9.36604 18.5382 9.37988 18.7402C9.39373 18.936 9.43163 19.3349 9.43164 19.5459C9.43164 19.7566 9.42695 19.9802 9.33105 20.0684C9.30943 20.0881 9.22075 20.1636 9.04785 20.1826L8.98535 20.3701C8.9995 20.3701 9.05127 20.3676 9.14062 20.3613C9.23056 20.355 9.24483 20.3481 9.36914 20.3418C9.4938 20.3355 9.61567 20.3296 9.7334 20.3232C9.85783 20.3169 9.95808 20.3135 10.0342 20.3135H10.4082C10.5375 20.3135 10.7221 20.3314 10.7285 20.332L10.8018 20.1543L10.7803 20.126L10.6885 20.1348C10.5571 20.1348 10.4636 20.1284 10.4082 20.04C10.3529 19.9447 10.3109 19.4569 10.2832 19.1855C10.2624 18.9582 10.2386 18.702 10.2109 18.418C10.1833 18.1277 10.1594 17.8406 10.1387 17.5566C10.1179 17.2724 10.0998 17.0224 10.0859 16.8076C10.0721 16.5932 10.0654 16.448 10.0654 16.3721C10.0654 16.2457 10.0848 15.9514 10.1748 15.8945C10.1805 15.8896 10.2904 15.7961 10.5264 15.7715L10.5889 15.5664L10.5576 15.5381C10.5576 15.5381 10.5153 15.5415 10.3906 15.5479ZM13.7041 15.5C13.1571 15.5 12.6724 15.611 12.25 15.832C11.8276 16.0468 11.4943 16.3461 11.252 16.7314C11.0165 17.1168 10.8994 17.5689 10.8994 18.0869C10.8994 18.5543 10.9994 18.9622 11.2002 19.3096C11.401 19.6569 11.682 19.9248 12.042 20.1143C12.409 20.3038 12.8384 20.3984 13.3301 20.3984C13.8841 20.3984 14.3725 20.2885 14.7949 20.0674C15.2242 19.8463 15.5604 19.54 15.8027 19.1484C16.0451 18.7568 16.166 18.3046 16.166 17.793C16.166 17.3192 16.0651 16.9114 15.8643 16.5703C15.6634 16.2294 15.3796 15.9673 15.0127 15.7842C14.6457 15.5947 14.2095 15.5 13.7041 15.5ZM18.3428 15.5381C18.2807 15.5444 18.2873 15.5503 18.1836 15.5566C18.0798 15.563 17.9721 15.5699 17.8613 15.5762C17.7507 15.5825 17.6504 15.585 17.5605 15.585H17.0723C16.8922 15.585 16.4678 15.5664 16.4678 15.5664L16.3955 15.8662L16.416 15.8945H16.5195C16.5888 15.8882 16.645 15.8975 16.6865 15.8975C16.811 15.8976 16.9029 15.9749 16.9375 16.0254C16.9504 16.046 16.9375 16.239 16.9375 16.4189V18.7979C16.9376 19.322 17.1004 19.7197 17.4258 19.9912C17.7582 20.2628 18.2428 20.3984 18.8799 20.3984C19.5793 20.3984 20.1163 20.2535 20.4902 19.9629C20.8641 19.6723 21.0508 19.2551 21.0508 18.7119V16.3721C21.0508 16.2394 21.0304 16.0022 21.0928 15.958C21.1123 15.9441 21.1523 15.904 21.373 15.8662L21.4141 15.5566C21.4097 15.5569 21.3579 15.5604 21.2588 15.5664C21.155 15.5727 21.2378 15.5636 21.0928 15.5762C20.9475 15.5825 20.8054 15.585 20.667 15.585H20.2715C20.1193 15.5787 20.0152 15.5762 19.8906 15.5762C19.7784 15.5701 19.7852 15.5664 19.7852 15.5664L19.7129 15.8662L19.7334 15.8945H19.8584C20.0744 15.8946 20.1221 15.9432 20.1826 16.0137C20.2429 16.0843 20.2197 16.2613 20.2197 16.4189C20.2197 16.4189 20.2197 16.4855 20.2197 16.6182C20.2266 16.7444 20.2305 16.9085 20.2305 17.1104C20.2374 17.3061 20.2402 17.5118 20.2402 17.7266C20.2472 17.9413 20.251 18.1435 20.251 18.333C20.2579 18.5162 20.2617 18.6587 20.2617 18.7598C20.2617 19.1007 20.1607 19.3593 19.96 19.5361C19.7661 19.7067 19.4785 19.792 19.0977 19.792C18.7169 19.7919 18.4264 19.6844 18.2256 19.4697C18.0248 19.2486 17.9238 18.9423 17.9238 18.5508L17.9863 16.3906C17.9863 16.1829 18.09 15.9868 18.1523 15.9297C18.2216 15.8728 18.2603 15.8344 18.4473 15.8154V15.5283C18.4473 15.5283 18.412 15.5318 18.3428 15.5381ZM30.8555 15.5762H28.4404L27.876 15.5L27.793 15.5762C27.786 15.7529 27.7756 15.9297 27.7617 16.1064C27.7479 16.2832 27.7336 16.411 27.7197 16.5625C27.7061 16.7116 27.6796 16.9039 27.6787 16.9102L28.0557 16.8818C28.0833 16.6548 28.1301 16.563 28.1592 16.4873C28.2076 16.3611 28.2706 16.3058 28.3467 16.249C28.4298 16.1859 28.544 16.144 28.6895 16.125C28.8417 16.1061 28.9231 16.0942 29.1582 16.0879V19.1006C29.1582 19.3153 29.1567 19.7353 29.1221 19.8428C29.0875 19.9501 28.9863 20.0788 28.835 20.1357C28.7527 20.1666 28.8089 20.1539 28.5459 20.1729L28.4727 20.3613L28.8174 20.332C28.9627 20.3257 29.0373 20.3198 29.1895 20.3135H29.9893C30.1485 20.3198 30.1338 20.3232 30.2861 20.3232C30.4342 20.3233 30.6262 20.3408 30.6367 20.3418L30.71 20.1445L30.6689 20.126C30.6585 20.1264 30.4341 20.1352 30.3789 20.126C30.3225 20.1165 30.2768 20.1158 30.2041 20.04C30.1316 19.9636 30.1143 19.5394 30.1143 19.3564V18.4756C30.1212 18.1598 30.1317 17.85 30.1455 17.5469C30.1594 17.2437 30.1698 16.9656 30.1768 16.7129C30.1906 16.4541 30.2078 16.2458 30.2285 16.0879C30.4568 16.0942 30.5055 16.1061 30.6367 16.125C30.7752 16.144 30.88 16.1859 30.9492 16.249C31.025 16.3058 31.086 16.4011 31.125 16.4961C31.164 16.5915 31.2154 16.6765 31.25 16.9102L31.5977 16.8818C31.5969 16.8778 31.5635 16.6973 31.5566 16.5537C31.5497 16.4084 31.5392 16.2833 31.5254 16.1064C31.5185 15.9297 31.5118 15.7529 31.5049 15.5762L31.4111 15.5L30.8555 15.5762ZM13.4551 16.1445C13.7734 16.1446 14.047 16.2231 14.2754 16.3809C14.5109 16.5388 14.6908 16.77 14.8154 17.0732C14.9469 17.37 15.0126 17.7329 15.0127 18.1621C15.0127 18.68 14.8813 19.0879 14.6182 19.3848C14.355 19.6816 14.0018 19.8301 13.5586 19.8301C13.247 19.8301 12.9766 19.7517 12.748 19.5938C12.5195 19.4295 12.3434 19.1983 12.2188 18.9014C12.1011 18.5982 12.042 18.2321 12.042 17.8027C12.042 17.2784 12.1667 16.8707 12.416 16.5801C12.6722 16.2896 13.0189 16.1445 13.4551 16.1445Z" fill="currentColor"/>
</svg>
