<svg width="36" height="36" viewBox="0 0 36 36" fill="none" xmlns="http://www.w3.org/2000/svg">
<path d="M0 12.8C0 8.31958 0 6.07937 0.871948 4.36808C1.63893 2.86278 2.86278 1.63893 4.36808 0.871948C6.07937 0 8.31958 0 12.8 0H23.2C27.6804 0 29.9206 0 31.6319 0.871948C33.1372 1.63893 34.3611 2.86278 35.1281 4.36808C36 6.07937 36 8.31958 36 12.8V23.2C36 27.6804 36 29.9206 35.1281 31.6319C34.3611 33.1372 33.1372 34.3611 31.6319 35.1281C29.9206 36 27.6804 36 23.2 36H12.8C8.31958 36 6.07937 36 4.36808 35.1281C2.86278 34.3611 1.63893 33.1372 0.871948 31.6319C0 29.9206 0 27.6804 0 23.2V12.8Z" fill="url(#paint0_linear_14507_128)"/>
<path d="M7.27115 20.4367C7.09109 19.9629 6.9145 19.5113 6.74136 19.0817C6.57515 18.6458 6.41587 18.2416 6.26351 17.8689C6.11808 17.4962 5.97957 17.1708 5.84799 16.8929H5.78566C5.78566 16.8929 5.77874 16.9561 5.76489 17.0824C5.75104 17.2024 5.73719 17.3635 5.72334 17.5656C5.71641 17.7615 5.70256 17.9731 5.68178 18.2005C5.66101 18.4216 5.6437 18.6364 5.62984 18.8448C5.61599 19.0533 5.60214 19.2302 5.58829 19.3755C5.58137 19.5207 5.5779 19.606 5.5779 19.6313C5.5779 19.7892 5.66793 20.1351 5.84799 20.1351L6.0021 20.139L6.03327 20.1635L5.95016 20.3419C5.95016 20.3419 5.86152 20.323 5.73372 20.323C5.60592 20.323 5.5225 20.3198 5.4117 20.3135C5.30782 20.3135 5.21779 20.3135 5.14161 20.3135C5.0308 20.3135 4.90961 20.3167 4.77803 20.323C4.65337 20.3356 4.63949 20.3451 4.54946 20.3514C4.46636 20.3641 4.4248 20.3704 4.4248 20.3704L4.46636 20.1824C4.63949 20.1635 4.67223 20.1338 4.74686 20.0601C4.8215 19.9863 4.88191 19.5586 4.90268 19.3755C4.91653 19.3186 4.93039 19.2112 4.94424 19.0533C4.96501 18.8954 4.98925 18.709 5.01695 18.4942C5.04465 18.2731 5.07236 18.0489 5.10006 17.8215C5.12776 17.5878 5.152 17.3667 5.17277 17.1582C5.20047 16.9497 5.22125 16.776 5.2351 16.6371C5.24895 16.4918 5.25588 16.4002 5.25588 16.3623C5.25588 16.2738 5.23861 15.9454 5.19706 15.8948C5.15551 15.8443 5.00659 15.7722 4.83346 15.7659L4.79191 15.7091L4.86635 15.5474C4.86635 15.5474 4.97021 15.56 5.08794 15.5663C5.20567 15.5727 5.24895 15.579 5.35976 15.5853C5.47749 15.5853 5.57444 15.5853 5.65062 15.5853C5.73372 15.5853 5.82375 15.5853 5.92071 15.5853C6.01766 15.579 6.10769 15.5758 6.1908 15.5758C6.2739 15.5695 6.34315 15.5663 6.39856 15.5663C6.45396 15.56 6.48166 15.5569 6.48166 15.5569C6.62709 15.999 6.76906 16.4128 6.90757 16.7981C7.04608 17.1772 7.17073 17.5151 7.28154 17.812C7.39927 18.1026 7.4893 18.33 7.55163 18.4942C7.62088 18.6522 7.65551 18.7311 7.65551 18.7311H7.71783C7.71783 18.7311 7.749 18.649 7.81133 18.4848C7.88058 18.3205 7.97407 18.0963 8.0918 17.812C8.20953 17.5214 8.34111 17.1866 8.48655 16.8076C8.63198 16.4223 8.78434 16.0117 8.94362 15.5758C9.03365 15.5695 9.16869 15.5695 9.34875 15.5758C9.52881 15.5821 9.69502 15.5853 9.84737 15.5853C9.94433 15.579 10.2664 15.5537 10.391 15.5474C10.5157 15.5411 10.5572 15.5379 10.5572 15.5379L10.5884 15.5663L10.5261 15.7716C10.2837 15.7969 10.1746 15.8948 10.1746 15.8948C10.0846 15.9517 10.0655 16.2454 10.0655 16.3717C10.0655 16.4475 10.0724 16.5928 10.0863 16.8076C10.1001 17.0224 10.1175 17.2719 10.1382 17.5562C10.159 17.8404 10.1833 18.1279 10.211 18.4184C10.2387 18.7027 10.2629 18.9585 10.2837 19.1859C10.3114 19.4576 10.3529 19.9456 10.4083 20.0403C10.4637 20.1287 10.5572 20.1351 10.6888 20.1351L10.7806 20.1256L10.8014 20.154L10.7286 20.3325C10.7286 20.3325 10.5399 20.3135 10.4083 20.3135C10.2767 20.3135 10.1521 20.3135 10.0344 20.3135C9.95818 20.3135 9.85776 20.3167 9.73311 20.323C9.61538 20.3293 9.49418 20.3356 9.36953 20.3419C9.24487 20.3483 9.23099 20.3546 9.14096 20.3609C9.05093 20.3672 8.99899 20.3704 8.98514 20.3704L9.04747 20.1824C9.2206 20.1635 9.30898 20.0885 9.33062 20.0687C9.42693 19.9809 9.43186 19.757 9.43186 19.546C9.43186 19.335 9.39377 18.9364 9.37992 18.7406C9.36606 18.5385 9.34875 18.33 9.32797 18.1152C9.31412 17.9004 9.30027 17.7015 9.28642 17.5183C9.27257 17.3288 9.25872 17.1772 9.24487 17.0635C9.23102 16.9497 9.22409 16.8929 9.22409 16.8929H9.16177C9.07174 17.1014 8.97132 17.3382 8.86051 17.6035C8.74971 17.8625 8.63198 18.1405 8.50732 18.4374C8.38959 18.7343 8.26494 19.047 8.13335 19.3755C8.0087 19.6976 7.88058 20.0293 7.749 20.3704L7.27115 20.4367Z" fill="#141515"/>
<path d="M13.33 20.3988C12.8383 20.3988 12.4089 20.304 12.0419 20.1145C11.6817 19.925 11.4013 19.6566 11.2004 19.3091C10.9996 18.9617 10.8992 18.5542 10.8992 18.0868C10.8992 17.5688 11.0169 17.1171 11.2524 16.7318C11.4948 16.3465 11.8272 16.0464 12.2496 15.8316C12.6721 15.6105 13.1568 15.5 13.7039 15.5C14.2095 15.5 14.6458 15.5948 15.0128 15.7843C15.3799 15.9675 15.6638 16.2296 15.8646 16.5707C16.0655 16.9118 16.1659 17.3193 16.1659 17.7931C16.1659 18.3047 16.0447 18.7564 15.8023 19.148C15.5599 19.5397 15.2241 19.8461 14.7947 20.0672C14.3722 20.2882 13.884 20.3988 13.33 20.3988ZM13.5585 19.8303C14.0017 19.8303 14.3549 19.6818 14.6181 19.3849C14.8813 19.088 15.0128 18.6806 15.0128 18.1626C15.0128 17.733 14.947 17.3698 14.8155 17.0729C14.6908 16.7697 14.5107 16.5391 14.2753 16.3812C14.0467 16.2233 13.7732 16.1443 13.4546 16.1443C13.0183 16.1443 12.6721 16.2896 12.4158 16.5802C12.1665 16.8708 12.0419 17.2782 12.0419 17.8025C12.0419 18.2321 12.1007 18.5985 12.2185 18.9017C12.3431 19.1986 12.5197 19.4291 12.7482 19.5934C12.9768 19.7513 13.2469 19.8303 13.5585 19.8303Z" fill="#141515"/>
<path d="M18.8798 20.3988C18.2427 20.3988 17.7579 20.263 17.4255 19.9913C17.1 19.7197 16.9373 19.3218 16.9373 18.7974C16.9373 18.7974 16.9373 16.5998 16.9373 16.4191C16.9373 16.2384 16.9505 16.0445 16.9373 16.0252C16.9026 15.9747 16.8108 15.8973 16.6861 15.8973C16.6446 15.8973 16.5892 15.8885 16.5199 15.8948C16.4506 15.8948 16.416 15.8948 16.416 15.8948L16.3952 15.8664L16.468 15.5663C16.468 15.5663 16.8923 15.5853 17.0723 15.5853C17.2524 15.5853 17.4151 15.5853 17.5605 15.5853C17.6506 15.5853 17.751 15.5821 17.8618 15.5758C17.9726 15.5695 18.0799 15.5632 18.1838 15.5569C18.2877 15.5505 18.2807 15.5442 18.343 15.5379C18.4122 15.5316 18.4469 15.5284 18.4469 15.5284V15.8159C18.2599 15.8349 18.2219 15.8728 18.1527 15.9296C18.0903 15.9865 17.9865 16.1827 17.9865 16.3907L17.9241 18.5511C17.9241 18.9427 18.0245 19.2491 18.2254 19.4702C18.4262 19.685 18.7171 19.7924 19.098 19.7924C19.4789 19.7924 19.7663 19.7071 19.9602 19.5365C20.161 19.3597 20.2614 19.1007 20.2614 18.7595C20.2614 18.6585 20.258 18.5163 20.251 18.3331C20.251 18.1436 20.2476 17.9415 20.2407 17.7267C20.2407 17.5119 20.2372 17.3066 20.2303 17.1108C20.2303 16.9087 20.2268 16.7444 20.2199 16.6181C20.2199 16.4854 20.2199 16.4191 20.2199 16.4191C20.2199 16.2612 20.2431 16.0837 20.1826 16.0133C20.122 15.9428 20.0744 15.8948 19.8579 15.8948C19.6415 15.8948 19.7333 15.8948 19.7333 15.8948L19.7125 15.8664L19.7852 15.5663C19.7852 15.5663 19.7731 15.5695 19.8908 15.5758C20.0155 15.5758 20.1195 15.579 20.2718 15.5853C20.4311 15.5853 20.5627 15.5853 20.6666 15.5853C20.8051 15.5853 20.947 15.5821 21.0925 15.5758C21.2379 15.5632 21.1547 15.5726 21.2586 15.5663C21.3624 15.56 21.4144 15.5569 21.4144 15.5569L21.3728 15.8664C21.1512 15.9043 21.1119 15.9442 21.0925 15.958C21.0301 16.0023 21.0509 16.2391 21.0509 16.3717V18.7122C21.0509 19.2554 20.8639 19.6723 20.49 19.9629C20.116 20.2535 19.5793 20.3988 18.8798 20.3988Z" fill="#141515"/>
<path d="M26.007 18.7311L25.9862 16.3433C25.9862 16.2296 25.9776 15.9924 25.9361 15.9482C25.8945 15.8976 25.8917 15.8723 25.7878 15.8723C25.7255 15.8723 25.7358 15.8723 25.6734 15.8723C25.618 15.8723 25.5799 15.8723 25.5592 15.8723L25.5384 15.825L25.5885 15.5569C25.5885 15.5569 25.6231 15.56 25.6924 15.5663C25.7686 15.5663 25.786 15.5695 25.8899 15.5758C26.0007 15.5758 26.0416 15.579 26.1524 15.5853C26.2701 15.5853 26.3705 15.5853 26.4536 15.5853C26.5922 15.5853 26.7341 15.5821 26.8796 15.5758C27.025 15.5695 27.3546 15.5569 27.3546 15.5569L27.3252 15.7811C27.1313 15.8064 27.0545 15.8348 26.9645 15.9043C26.8814 15.9738 26.8242 16.3149 26.8172 16.4665L26.703 20.4367L26.007 20.5C25.6468 20.0199 25.304 19.6029 24.9785 19.1859C24.6531 18.7627 24.3622 18.3932 24.106 18.0773C23.8566 17.7615 23.6593 17.5151 23.5138 17.3382C23.3684 17.1614 23.2957 17.0729 23.2957 17.0729H23.223L23.2126 19.546C23.2126 19.6723 23.258 19.9988 23.2929 20.0403C23.3278 20.0818 23.4308 20.1351 23.5093 20.1351C23.64 20.1351 23.6694 20.1311 23.6694 20.1311L23.717 20.1635L23.6235 20.3419C23.6235 20.3419 23.5075 20.323 23.3967 20.323C23.2859 20.323 23.2264 20.3198 23.1087 20.3135C22.9979 20.3135 22.894 20.3135 22.7971 20.3135C22.6586 20.3135 22.5131 20.3167 22.3608 20.323C22.2153 20.3356 22.1841 20.3451 22.0803 20.3514C21.9764 20.364 21.9244 20.3704 21.9244 20.3704L21.9868 20.1824C22.1599 20.1635 22.2228 20.1301 22.3103 20.0916C22.4272 20.0403 22.4186 19.7274 22.4186 19.4512L22.5166 16.457C22.5166 16.2991 22.5242 15.958 22.4272 15.8948C22.4272 15.8948 22.3296 15.8162 22.0567 15.7622L21.9944 15.7053L22.0549 15.5474C22.0549 15.5474 22.1842 15.5695 22.3296 15.5758C22.475 15.5821 22.6066 15.5853 22.7244 15.5853C22.8421 15.5853 22.9564 15.5821 23.0672 15.5758C23.1849 15.5695 23.2818 15.5663 23.358 15.5663C23.4342 15.56 23.4723 15.5569 23.4723 15.5569C23.7701 15.9675 24.0644 16.3623 24.3553 16.7413C24.6531 17.1203 24.9197 17.4614 25.1551 17.7646C25.3906 18.0615 25.5776 18.2984 25.7161 18.4753C25.8615 18.6458 25.9342 18.7311 25.9342 18.7311H26.007Z" fill="#141515"/>
<path d="M28.473 20.3609L28.5457 20.173C28.8089 20.154 28.7527 20.1667 28.8349 20.1358C28.9863 20.079 29.0876 19.9503 29.1223 19.8429C29.1569 19.7355 29.1586 19.3154 29.1586 19.1007V16.0875C28.9232 16.0938 28.8418 16.1064 28.6894 16.1254C28.544 16.1443 28.4297 16.1854 28.3466 16.2486C28.2704 16.3054 28.2081 16.3607 28.1596 16.487C28.1306 16.5628 28.0835 16.6544 28.0558 16.8818L27.6783 16.9103C27.6783 16.9103 27.706 16.7144 27.7198 16.5628C27.7337 16.4112 27.7475 16.2833 27.7614 16.1064C27.7753 15.9296 27.7856 15.7527 27.7926 15.5758L27.8757 15.5L28.4401 15.5758H30.8553L31.4111 15.5L31.5046 15.5758C31.5115 15.7527 31.5184 15.9296 31.5253 16.1064C31.5392 16.2833 31.5496 16.4081 31.5565 16.5534C31.5634 16.6986 31.5981 16.8818 31.5981 16.8818L31.2501 16.9103C31.2154 16.6765 31.1645 16.5919 31.1254 16.4965C31.0864 16.4011 31.025 16.3054 30.9488 16.2486C30.8796 16.1854 30.7757 16.1443 30.6372 16.1254C30.5056 16.1064 30.4571 16.0938 30.2286 16.0875C30.2078 16.2454 30.1905 16.4539 30.1767 16.7129C30.1697 16.9655 30.1593 17.2435 30.1455 17.5467C30.1316 17.8499 30.1213 18.1594 30.1143 18.4753C30.1143 18.7848 30.1143 19.0785 30.1143 19.3565C30.1143 19.5397 30.1316 19.9645 30.2043 20.0403C30.277 20.1161 30.3227 20.1161 30.3792 20.1256C30.4356 20.1351 30.6693 20.1256 30.6693 20.1256L30.7099 20.1445L30.6372 20.3419C30.6372 20.3419 30.4381 20.323 30.2857 20.323C30.1333 20.323 30.149 20.3198 29.9897 20.3135C29.8304 20.3135 29.6988 20.3135 29.5949 20.3135C29.4772 20.3135 29.3422 20.3135 29.1898 20.3135C29.0374 20.3198 28.963 20.3261 28.8176 20.3325L28.473 20.3609Z" fill="#141515"/>
<defs>
<linearGradient id="paint0_linear_14507_128" x1="18" y1="0" x2="18" y2="36" gradientUnits="userSpaceOnUse">
<stop offset="0.05" stop-color="#FCE576"/>
<stop offset="0.57" stop-color="#F5F7EE"/>
<stop offset="1" stop-color="#F7F8F5"/>
</linearGradient>
</defs>
</svg>
